<svg width="17" height="18" viewBox="0 0 17 18" fill="none" xmlns="http://www.w3.org/2000/svg">
<path d="M16.7647 12.4731L16.3044 8.64566L15.5719 2.55883C15.5719 2.422 15.5289 2.28813 15.448 2.17364C15.3672 2.05915 15.252 1.96902 15.1166 1.9143L9.07688 0.0579193C8.98064 0.0197048 8.87703 0 8.77233 0C8.66762 0 8.56401 0.0197048 8.46777 0.0579193L2.42801 1.91429C2.29291 1.96934 2.17798 2.05955 2.09717 2.17397C2.01635 2.28839 1.97315 2.42209 1.97279 2.55883L1.24026 8.64566L0.779582 12.4757C0.752595 12.7273 0.799617 12.981 0.915661 13.2098C1.0317 13.4387 1.21244 13.6341 1.4387 13.7755L7.73043 17.7051C8.03822 17.8973 8.40096 18 8.77216 18C9.14336 18 9.5061 17.8973 9.81389 17.7051L16.1059 13.7725C16.3321 13.6312 16.5128 13.4358 16.6288 13.207C16.7448 12.9782 16.7918 12.7246 16.7647 12.4731ZM15.3439 12.7261L9.05187 16.6584C8.96939 16.7102 8.872 16.7379 8.77232 16.738V8.64566H2.61139L3.29326 2.97852L8.77232 1.29441L8.77232 8.64566H14.9333L15.4093 12.6017C15.4112 12.6259 15.4062 12.6502 15.3947 12.672C15.3832 12.6939 15.3657 12.7126 15.3439 12.7261Z" fill="#757575"/>
</svg>
