<svg width="16" height="17" viewBox="0 0 16 17" fill="none" xmlns="http://www.w3.org/2000/svg">
<path fill-rule="evenodd" clip-rule="evenodd" d="M16 3.18564L12.32 0L11.28 1.22525L14.96 4.41089L16 3.18564ZM4.72 1.30693L3.68 0.0816832L0 3.18564L1.04 4.41089L4.72 1.30693ZM8.4 5.06436H7.2V9.96535L10.96 12.3342L11.6 11.354L8.4 9.39356V5.06436ZM8 1.79703C4 1.79703 0.8 5.06436 0.8 9.14851C0.8 13.2327 4 16.5 8 16.5C12 16.5 15.2 13.2327 15.2 9.14851C15.2 5.06436 12 1.79703 8 1.79703ZM8 14.8663C4.88 14.8663 2.4 12.3342 2.4 9.14851C2.4 5.96287 4.88 3.43069 8 3.43069C11.12 3.43069 13.6 5.96287 13.6 9.14851C13.6 12.3342 11.12 14.8663 8 14.8663Z" fill="#757575"/>
</svg>
