<svg width="19" height="18" viewBox="0 0 19 18" fill="none" xmlns="http://www.w3.org/2000/svg">
<path d="M8.10883 1.81369L1.21805 13.7645C1.07598 14.0201 1.0008 14.3099 1.00001 14.605C0.999211 14.9002 1.07282 15.1904 1.21351 15.4468C1.3542 15.7032 1.55707 15.9169 1.80194 16.0666C2.0468 16.2163 2.32513 16.2968 2.60922 16.3H16.3908C16.6749 16.2968 16.9532 16.2163 17.1981 16.0666C17.4429 15.9169 17.6458 15.7032 17.7865 15.4468C17.9272 15.1904 18.0008 14.9002 18 14.605C17.9992 14.3099 17.924 14.0201 17.782 13.7645L10.8912 1.81369C10.7461 1.5653 10.5419 1.35993 10.2983 1.2174C10.0546 1.07488 9.77965 1 9.5 1C9.22035 1 8.94543 1.07488 8.70175 1.2174C8.45807 1.35993 8.25386 1.5653 8.10883 1.81369Z" stroke="#A6A5A5" stroke-width="2" stroke-linecap="round" stroke-linejoin="round"/>
<path d="M9.5 6.15796V9.53866" stroke="#A6A5A5" stroke-width="2" stroke-linecap="round" stroke-linejoin="round"/>
<circle cx="9.5" cy="12.5" r="1.5" fill="#A6A5A5"/>
</svg>
