<svg width="16" height="16" viewBox="0 0 16 16" fill="none" xmlns="http://www.w3.org/2000/svg">
<path d="M6.83661 0H1.49152C1.09617 0.000699086 0.717209 0.154368 0.437649 0.427351C0.158088 0.700334 0.000715932 1.07038 0 1.45643V6.67574C0 6.78108 0.0428583 6.88213 0.119143 6.95662C0.195428 7.03111 0.298896 7.07295 0.406779 7.07295H5.75186C6.14744 7.07295 6.5268 6.9195 6.80653 6.64638C7.08623 6.37323 7.24338 6.00279 7.24338 5.61652V0.397208C7.24338 0.291863 7.20054 0.190829 7.12425 0.11634C7.04797 0.0418499 6.94448 0 6.83661 0Z" fill="#757575"/>
<path d="M5.75186 8.55054H0.406779C0.298896 8.55054 0.195428 8.5924 0.119143 8.66689C0.0428583 8.74138 0 8.84241 0 8.94775V14.1671C0.000715932 14.5531 0.158088 14.9232 0.437649 15.1961C0.717209 15.4691 1.09617 15.6228 1.49152 15.6235H6.83661C6.94448 15.6235 7.04797 15.5816 7.12425 15.5072C7.20054 15.4327 7.24338 15.3316 7.24338 15.2263V10.007C7.24338 9.6207 7.08623 9.25026 6.80653 8.97714C6.5268 8.70399 6.14744 8.55054 5.75186 8.55054Z" fill="#757575"/>
<path d="M15.5932 8.55054H10.2481C9.85254 8.55054 9.47317 8.70399 9.19347 8.97714C8.91374 9.25026 8.75659 9.6207 8.75659 10.007V15.2263C8.75659 15.3316 8.79947 15.4327 8.87575 15.5072C8.95204 15.5816 9.05549 15.6235 9.16337 15.6235H14.5085C14.9038 15.6228 15.2828 15.4691 15.5623 15.1961C15.8419 14.9232 15.9993 14.5531 16 14.1671V8.94775C16 8.84241 15.9571 8.74138 15.8808 8.66689C15.8046 8.5924 15.7011 8.55054 15.5932 8.55054Z" fill="#757575"/>
<path d="M10.2481 4.99423H10.8854V5.61652C10.8854 6.00279 11.0426 6.37323 11.3223 6.64638C11.602 6.9195 11.9814 7.07295 12.377 7.07295C12.7725 7.07295 13.1519 6.9195 13.4316 6.64638C13.7113 6.37323 13.8685 6.00279 13.8685 5.61652V4.99423H14.5085C14.9041 4.99423 15.2834 4.84078 15.5631 4.56766C15.8429 4.29451 16 3.92407 16 3.5378C16 3.15153 15.8429 2.78109 15.5631 2.50795C15.2834 2.23483 14.9041 2.08137 14.5085 2.08137H13.8685V1.45643C13.8685 1.07016 13.7113 0.699711 13.4316 0.426578C13.1519 0.153444 12.7725 0 12.377 0C11.9814 0 11.602 0.153444 11.3223 0.426578C11.0426 0.699711 10.8854 1.07016 10.8854 1.45643V2.08137H10.2481C9.85256 2.08137 9.4732 2.23483 9.1935 2.50795C8.91377 2.78109 8.75661 3.15153 8.75661 3.5378C8.75661 3.92407 8.91377 4.29451 9.1935 4.56766C9.4732 4.84078 9.85256 4.99423 10.2481 4.99423Z" fill="#757575"/>
</svg>
