<svg width="17" height="18" viewBox="0 0 17 18" fill="none" xmlns="http://www.w3.org/2000/svg">
<path d="M14.3252 1.22034H11.6596V0.457627C11.6597 0.338342 11.6078 0.223755 11.5149 0.138277C11.4221 0.0527949 11.2957 0.00318203 11.1626 0H5.09622C4.9608 0 4.83093 0.0482156 4.73517 0.134036C4.63941 0.219856 4.58559 0.336258 4.58559 0.457627V1.22034H2.06984C1.57357 1.22114 1.09782 1.39819 0.746909 1.71269C0.395961 2.0272 0.198408 2.45352 0.19751 2.8983V16.322C0.198408 16.7668 0.395961 17.1931 0.746909 17.5077C1.09782 17.8221 1.57357 17.9992 2.06984 18H14.3252C14.8215 17.9992 15.2972 17.8221 15.6481 17.5077C15.9991 17.1931 16.1966 16.7668 16.1975 16.322V2.8983C16.1966 2.45352 15.9991 2.0272 15.6481 1.71269C15.2972 1.39819 14.8215 1.22114 14.3252 1.22034ZM5.60686 0.915254H10.6384V2.44068H5.60686V0.915254ZM12.3541 15.2542H3.84346C3.70804 15.2542 3.57816 15.206 3.4824 15.1202C3.38664 15.0344 3.33282 14.918 3.33282 14.7966C3.33282 14.6752 3.38664 14.5588 3.4824 14.473C3.57816 14.3872 3.70804 14.339 3.84346 14.339H12.3541C12.4896 14.339 12.6194 14.3872 12.7152 14.473C12.811 14.5588 12.8647 14.6752 12.8647 14.7966C12.8647 14.918 12.811 15.0344 12.7152 15.1202C12.6194 15.206 12.4896 15.2542 12.3541 15.2542ZM12.3541 12.2278H3.84346C3.70804 12.2278 3.57816 12.1796 3.4824 12.0938C3.38664 12.008 3.33282 11.8915 3.33282 11.7702C3.33282 11.6488 3.38664 11.5324 3.4824 11.4466C3.57816 11.3607 3.70804 11.3125 3.84346 11.3125H12.3541C12.4896 11.3125 12.6194 11.3607 12.7152 11.4466C12.811 11.5324 12.8647 11.6488 12.8647 11.7702C12.8647 11.8915 12.811 12.008 12.7152 12.0938C12.6194 12.1796 12.4896 12.2278 12.3541 12.2278ZM12.3541 9.20441H3.84346C3.70804 9.20441 3.57816 9.1562 3.4824 9.07038C3.38664 8.98456 3.33282 8.86814 3.33282 8.74678C3.33282 8.62542 3.38664 8.509 3.4824 8.42318C3.57816 8.33736 3.70804 8.28915 3.84346 8.28915H12.3541C12.4896 8.28915 12.6194 8.33736 12.7152 8.42318C12.811 8.509 12.8647 8.62542 12.8647 8.74678C12.8647 8.86814 12.811 8.98456 12.7152 9.07038C12.6194 9.1562 12.4896 9.20441 12.3541 9.20441ZM12.3541 6.17797H3.84346C3.70804 6.17797 3.57816 6.12976 3.4824 6.04394C3.38664 5.95812 3.33282 5.8417 3.33282 5.72034C3.33282 5.59898 3.38664 5.48256 3.4824 5.39674C3.57816 5.31091 3.70804 5.26271 3.84346 5.26271H12.3541C12.4896 5.26271 12.6194 5.31091 12.7152 5.39674C12.811 5.48256 12.8647 5.59898 12.8647 5.72034C12.8647 5.8417 12.811 5.95812 12.7152 6.04394C12.6194 6.12976 12.4896 6.17797 12.3541 6.17797Z" fill="#757575"/>
</svg>
