<svg width="17" height="18" viewBox="0 0 17 18" fill="none" xmlns="http://www.w3.org/2000/svg">
<path d="M5.45574 5.85494H2.49586C1.34281 5.85494 0.391846 5.01099 0.391846 3.98769V1.8567C0.391846 0.833407 1.34281 0 2.49586 0H14.2878C15.4409 0 16.3918 0.833407 16.3918 1.8567V3.98769C16.3918 5.01099 15.4409 5.85494 14.2878 5.85494H11.328C11.2447 6.37187 10.9713 6.86769 10.4959 7.30022C10.0085 7.7222 9.44979 7.95429 8.86733 8.03868V9.90593C8.86733 10.4651 7.91636 10.4651 7.91636 9.90593V8.02813C6.71577 7.84879 5.65782 7.03648 5.45574 5.85494ZM8.87922 10.771C9.39036 10.3174 10.3294 11.2035 9.02186 11.6888C8.6177 11.8259 8.16599 11.8365 7.77372 11.6782L7.76183 11.6888C6.45425 11.2035 7.39333 10.3174 7.90448 10.771C7.9758 10.8343 8.04712 10.8765 8.13033 10.9081C8.37996 11.0031 8.67714 10.9503 8.87922 10.771ZM10.5196 12.2374C10.9595 11.847 11.637 12.4378 11.1972 12.8281C9.65188 14.2101 7.13182 14.2101 5.5865 12.8281C5.14667 12.4378 5.82424 11.847 6.26406 12.2374C7.44088 13.2818 9.34281 13.2818 10.5196 12.2374ZM12.1719 13.7037C12.6118 13.3029 13.2893 13.9042 12.8376 14.2945C10.3889 16.4782 6.39482 16.4782 3.94608 14.2945C3.49437 13.9042 4.17193 13.3029 4.61176 13.7037C6.70388 15.5499 10.0798 15.5499 12.1719 13.7037ZM13.8242 15.1596C14.2641 14.7692 14.9297 15.3705 14.4899 15.7609C11.1259 18.7464 5.65782 18.7464 2.29378 15.7609C1.85396 15.3705 2.51963 14.7692 2.95945 15.1596C5.96688 17.818 10.8168 17.8286 13.8242 15.1596ZM8.39185 4.27253C9.533 4.27253 10.1392 5.51736 9.30715 6.24527C8.48694 6.97319 7.08427 6.45626 7.08427 5.43297C7.08427 4.8 7.67862 4.27253 8.39185 4.27253ZM8.64147 5.21143C8.30864 4.91604 7.82127 5.35912 8.14222 5.65451C8.28486 5.77055 8.49883 5.77055 8.64147 5.65451C8.78412 5.52791 8.77223 5.32747 8.64147 5.21143ZM11.3161 5.01099H14.2878C14.9178 5.01099 15.4409 4.54681 15.4409 3.98769V1.8567C15.4409 1.29758 14.9178 0.843956 14.2878 0.843956H2.49586C1.86584 0.843956 1.34281 1.29758 1.34281 1.8567V3.98769C1.34281 4.54681 1.86584 5.01099 2.49586 5.01099H5.45574C5.68159 3.7556 6.91785 2.7956 8.39185 2.7956C9.98471 2.7956 11.0902 3.82945 11.3161 5.01099ZM9.81829 4.16703C8.54638 3.03824 6.37104 3.84 6.37104 5.43297C6.37104 7.02593 8.54638 7.82769 9.81829 6.6989C10.6147 6.00264 10.6147 4.8633 9.81829 4.16703Z" fill="#757575"/>
<path fill-rule="evenodd" clip-rule="evenodd" d="M8.64147 5.21143C8.30864 4.91604 7.82127 5.35912 8.14222 5.6545C8.28486 5.77055 8.49883 5.77055 8.64147 5.6545C8.78412 5.52791 8.77223 5.32747 8.64147 5.21143Z" fill="#8C8C8C"/>
<path fill-rule="evenodd" clip-rule="evenodd" d="M7.08427 5.43293C7.08427 4.79996 7.67862 4.27249 8.39185 4.27249C9.53301 4.27249 10.1392 5.51732 9.30715 6.24524C8.48694 6.97315 7.08427 6.45622 7.08427 5.43293ZM9.8183 4.16699C8.54638 3.0382 6.37104 3.83996 6.37104 5.43293C6.37104 7.02589 8.54638 7.82765 9.8183 6.69886C10.6147 6.0026 10.6147 4.86326 9.8183 4.16699Z" fill="#8C8C8C"/>
<path fill-rule="evenodd" clip-rule="evenodd" d="M5.45574 5.01103C5.68159 3.75564 6.91785 2.79564 8.39185 2.79564C9.98471 2.79564 11.0902 3.82949 11.3161 5.01103H14.2878C14.9178 5.01103 15.4409 4.54685 15.4409 3.98773V1.85674C15.4409 1.29762 14.9178 0.843994 14.2878 0.843994H2.49586C1.86584 0.843994 1.34281 1.29762 1.34281 1.85674V3.98773C1.34281 4.54685 1.86584 5.01103 2.49586 5.01103H5.45574Z" fill="#B3B3B3"/>
</svg>
