<?xml version="1.0" encoding="utf-8"?>
<!-- Generator: Adobe Illustrator 24.3.0, SVG Export Plug-In . SVG Version: 6.00 Build 0)  -->
<svg version="1.1" id="Layer_1" xmlns="http://www.w3.org/2000/svg" xmlns:xlink="http://www.w3.org/1999/xlink" x="0px" y="0px"
	 viewBox="0 0 17 18" style="enable-background:new 0 0 17 18;" xml:space="preserve">
<style type="text/css">
	.st0{fill:#2F3F9F;}
</style>
<path class="st0" d="M16.8,12.5l-0.5-3.8l-0.7-6.1c0-0.1,0-0.3-0.1-0.4c-0.1-0.1-0.2-0.2-0.3-0.3l-6-1.9C9,0,8.9,0,8.8,0
	C8.7,0,8.6,0,8.5,0.1l-6,1.9C2.3,2,2.2,2.1,2.1,2.2C2,2.3,2,2.4,2,2.6L1.2,8.6l-0.5,3.8c0,0.3,0,0.5,0.1,0.7
	c0.1,0.2,0.3,0.4,0.5,0.6l6.3,3.9C8,17.9,8.4,18,8.8,18c0.4,0,0.7-0.1,1-0.3l6.3-3.9c0.2-0.1,0.4-0.3,0.5-0.6
	C16.7,13,16.8,12.7,16.8,12.5z M15.3,12.7l-6.3,3.9c-0.1,0.1-0.2,0.1-0.3,0.1V8.6H2.6L3.3,3l5.5-1.7v7.4h6.2l0.5,4
	C15.4,12.6,15.4,12.7,15.3,12.7C15.4,12.7,15.4,12.7,15.3,12.7z"/>
</svg>
