<svg width="18" height="16" viewBox="0 0 18 16" fill="none" xmlns="http://www.w3.org/2000/svg">
<path d="M16.0714 0H1.92857C0.835714 0 0 0.990476 0 2.28571V13.7143C0 15.0095 0.835714 16 1.92857 16H6.36429H11.5714H16.0714C17.1643 16 18 15.0095 18 13.7143V2.28571C18 0.990476 17.1643 0 16.0714 0ZM6.42857 12.1905C4.30714 12.1905 2.57143 10.1333 2.57143 7.61905C2.57143 5.33333 3.98571 3.50476 5.78571 3.12381V7.61905C5.78571 8.07619 6.04286 8.38095 6.42857 8.38095H10.2214C9.9 10.5143 8.35714 12.1905 6.42857 12.1905ZM7.07143 6.85714V3.12381C8.67857 3.42857 9.96428 4.95238 10.2214 6.85714H7.07143ZM14.7857 11.4286H12.2143C11.8286 11.4286 11.5714 11.1238 11.5714 10.6667C11.5714 10.2095 11.8286 9.90476 12.2143 9.90476H14.7857C15.1714 9.90476 15.4286 10.2095 15.4286 10.6667C15.4286 11.1238 15.1714 11.4286 14.7857 11.4286ZM14.7857 8.38095H12.2143C11.8286 8.38095 11.5714 8.07619 11.5714 7.61905C11.5714 7.1619 11.8286 6.85714 12.2143 6.85714H14.7857C15.1714 6.85714 15.4286 7.1619 15.4286 7.61905C15.4286 8.07619 15.1714 8.38095 14.7857 8.38095ZM14.7857 5.33333H12.2143C11.8286 5.33333 11.5714 5.02857 11.5714 4.57143C11.5714 4.11429 11.8286 3.80952 12.2143 3.80952H14.7857C15.1714 3.80952 15.4286 4.11429 15.4286 4.57143C15.4286 5.02857 15.1714 5.33333 14.7857 5.33333Z" fill="#757575"/>
</svg>
