<svg width="18" height="15" viewBox="0 0 18 15" fill="none" xmlns="http://www.w3.org/2000/svg">
<path fill-rule="evenodd" clip-rule="evenodd" d="M9.35261 11.4959C10.1218 13.4914 12.4518 13.5615 13.1887 11.5079C12.9876 11.2554 12.8396 10.983 12.6915 10.7145C12.6674 10.6704 12.6433 10.6263 12.6191 10.5823C12.2635 10.9329 11.8323 11.1573 11.2707 11.1553C10.664 11.1533 10.2087 10.8647 9.83373 10.438C9.8112 10.412 9.78868 10.3859 9.76776 10.3599C9.71466 10.5462 9.64546 10.7666 9.57305 10.9749C9.50064 11.1733 9.42502 11.3616 9.35261 11.4959ZM6.78767 11.9787C6.90675 12.0368 7.02582 12.0949 7.14329 12.153C7.87383 11.9306 8.65747 11.6982 9.12411 11.2915C9.18526 11.1773 9.24962 11.013 9.31238 10.8347C9.40732 10.5662 9.49421 10.2717 9.54892 10.0714C9.31721 9.73277 9.12089 9.3521 8.93102 8.97544L8.30507 7.73727C8.07658 7.31252 7.9575 6.92384 7.95106 6.60729C7.94785 6.45702 7.96876 6.32078 8.01221 6.20258C8.05888 6.07636 8.12968 5.97217 8.22783 5.89203C8.27289 5.85397 8.32438 5.82191 8.37909 5.79586C8.33886 5.12469 8.32277 4.2792 8.35013 3.56996C8.363 3.40167 8.38874 3.23337 8.42736 3.06508C8.58667 2.35383 8.98734 1.78283 9.48294 1.38814C9.75649 1.17176 10.0558 1.00747 10.368 0.897276C10.5659 0.827153 10.199 0.0377694 10.4034 0.00972019C11.3962 -0.116501 13.0021 1.01148 13.694 1.94511C14.0416 2.41193 14.2588 3.03302 14.3055 3.85246L14.2668 5.872C14.4406 5.93811 14.5517 6.07435 14.5967 6.29674C14.6466 6.54117 14.5919 6.88778 14.4262 7.36061C14.4229 7.36862 14.4197 7.37664 14.4149 7.38665L13.702 8.84721C13.4398 9.38415 13.1743 9.9211 12.8283 10.3478C12.8589 10.4039 12.8911 10.46 12.9216 10.5181C13.0632 10.7746 13.2048 11.033 13.3867 11.2634C13.3931 11.2715 13.3979 11.2795 13.4028 11.2875C14.2234 12.0088 16.0369 12.1831 16.8028 12.716C17.0571 12.8923 17.2872 13.1167 17.4722 13.4212C17.6396 13.6957 17.8825 14.411 18 15C12.006 15 6.01369 15 0.0213344 15C-0.239343 13.1948 1.96193 12.3433 2.63615 11.6321C2.93706 11.3155 3.28141 10.9529 3.32002 10.8427C3.22348 10.7225 3.13498 10.5943 3.04808 10.4701L2.67316 9.92711L2.39317 9.93712L1.86056 9.95516C1.40678 9.294 1.43414 7.88953 1.47919 7.07811C1.6916 5.44725 2.19847 4.27319 3.02234 3.594C3.5807 3.1332 3.91379 3.10915 4.56709 3.10715C5.13672 3.10715 5.4859 3.09112 5.97185 3.48982C7.55522 4.7881 8.046 7.85147 7.27202 9.91508H6.71848L6.68308 9.96718L6.63481 10.0393L6.39505 10.3979C6.25505 10.6063 6.11345 10.8167 5.94771 11.001C6.04748 11.1653 6.32746 11.4698 6.57527 11.7403C6.64929 11.8264 6.7217 11.9046 6.78767 11.9787ZM5.04017 13.4533C5.04661 13.4413 5.05304 13.4292 5.06109 13.4192C5.24614 13.1147 5.47624 12.8903 5.73048 12.714C5.85278 12.6298 6.00242 12.5537 6.16977 12.4836C6.24862 12.3113 6.31137 12.1169 6.34999 11.8986C6.11506 11.6421 5.86887 11.3676 5.75784 11.1913L5.74657 11.2013C5.47624 11.4317 5.14476 11.584 4.68938 11.582C4.26458 11.58 3.94597 11.4337 3.68369 11.2154C3.61932 11.1613 3.55817 11.1032 3.50025 11.0431C3.37473 11.2494 3.069 11.57 2.79545 11.8585L2.73752 11.9186C2.71017 13.0907 3.98781 13.7458 5.04017 13.4533ZM8.73953 6.15249C8.60115 6.1585 8.49656 6.19456 8.42414 6.25467C8.38392 6.28873 8.35334 6.33281 8.33403 6.3849C8.31312 6.443 8.30346 6.51312 8.30507 6.59326C8.3099 6.82968 8.40966 7.14022 8.60276 7.49685L8.60598 7.50286L9.23192 8.74103C9.48294 9.2379 9.74523 9.74278 10.0719 10.1154C10.3857 10.4721 10.767 10.7145 11.2707 10.7165C11.8162 10.7185 12.2152 10.4661 12.5387 10.0894C12.875 9.6967 13.1421 9.15776 13.4028 8.62082L14.1075 7.17628C14.2395 6.80363 14.2862 6.55319 14.2572 6.40694C14.2395 6.32078 14.1623 6.27671 14.0303 6.26869C14.003 6.26669 13.974 6.26669 13.945 6.26669C13.9128 6.26869 13.8807 6.2707 13.8469 6.2747C13.8276 6.27671 13.8099 6.2747 13.7922 6.2707C13.7294 6.2747 13.665 6.26869 13.5991 6.25667L13.8404 4.92834C12.0511 5.27896 10.7123 3.62406 8.8216 4.59776L8.95837 6.16451C8.87792 6.16852 8.80711 6.16651 8.73953 6.15249ZM2.77775 9.68067C2.33685 7.79737 2.54282 6.06634 3.73357 4.58374C3.94436 5.43122 4.41583 6.13045 5.21878 6.64736C5.60336 7.00198 5.97346 7.43073 6.3339 7.92359C6.39827 7.59702 6.15529 7.20033 5.85921 6.79161C6.13115 6.9599 6.38217 7.19432 6.56079 7.64511C6.76675 8.16802 6.76354 8.6108 6.69595 9.1798C6.67503 9.3541 6.64446 9.5224 6.60584 9.68067C6.59297 9.68869 6.58331 9.70071 6.57366 9.71273C6.54148 9.76282 6.50769 9.8109 6.47872 9.85498C6.46746 9.87101 6.4578 9.88704 6.42884 9.92911L6.18908 10.2877C6.00564 10.5642 5.81898 10.8387 5.58083 11.0411C5.35234 11.2354 5.07235 11.3636 4.68777 11.3636C4.33377 11.3636 4.06505 11.2394 3.8446 11.0551C3.61449 10.8647 3.43105 10.6043 3.25405 10.3498L2.81476 9.71473C2.80511 9.70071 2.79223 9.68869 2.77775 9.68067Z" fill="#757575"/>
</svg>
