<svg width="14" height="15" viewBox="0 0 14 15" fill="none" xmlns="http://www.w3.org/2000/svg">
<path d="M13.5116 7.56506H7.73254C7.60302 7.56506 7.4788 7.6188 7.38721 7.71444C7.29562 7.81008 7.24417 7.9398 7.24417 8.07506V14.1101C7.24417 14.2453 7.29562 14.375 7.38721 14.4707C7.4788 14.5663 7.60302 14.6201 7.73254 14.6201H12.4111C12.8323 14.6192 13.2359 14.4441 13.5337 14.1331C13.8315 13.8221 13.9991 13.4006 14 12.9609V8.07506C14 7.9398 13.9485 7.81008 13.8569 7.71444C13.7654 7.6188 13.6411 7.56506 13.5116 7.56506Z" fill="#2F3F9F"/>
<path d="M12.4112 0H7.73257C7.60304 0 7.47882 0.0537319 7.38724 0.149375C7.29565 0.245019 7.24419 0.37474 7.24419 0.51V6.545C7.24419 6.68026 7.29565 6.80998 7.38724 6.90562C7.47882 7.00127 7.60304 7.055 7.73257 7.055H13.5116C13.6412 7.055 13.7654 7.00127 13.857 6.90562C13.9486 6.80998 14 6.68026 14 6.545V1.6592C13.9991 1.21943 13.8315 0.797927 13.5337 0.486961C13.2359 0.175995 12.8323 0.000898412 12.4112 0Z" fill="#5A6DE0"/>
<path d="M6.26744 7.56506H0.488372C0.358848 7.56506 0.234628 7.6188 0.143041 7.71444C0.0514533 7.81008 0 7.9398 0 8.07506V12.9609C0.000860312 13.4006 0.168531 13.8221 0.46631 14.1331C0.764088 14.4441 1.16772 14.6192 1.58884 14.6201H6.26744C6.39697 14.6201 6.52118 14.5663 6.61277 14.4707C6.70436 14.375 6.75581 14.2453 6.75581 14.1101V8.07506C6.75581 7.9398 6.70436 7.81008 6.61277 7.71444C6.52118 7.6188 6.39697 7.56506 6.26744 7.56506Z" fill="#2F3F9F"/>
<path d="M6.26744 0H1.58884C1.16772 0.000898412 0.764088 0.175995 0.46631 0.486961C0.168531 0.797927 0.000860312 1.21943 0 1.6592V6.545C0 6.68026 0.0514533 6.80998 0.143041 6.90562C0.234628 7.00127 0.358848 7.055 0.488372 7.055H6.26744C6.39697 7.055 6.52118 7.00127 6.61277 6.90562C6.70436 6.80998 6.75581 6.68026 6.75581 6.545V0.51C6.75581 0.37474 6.70436 0.245019 6.61277 0.149375C6.52118 0.0537319 6.39697 0 6.26744 0Z" fill="#2F3F9F"/>
</svg>
