<svg width="15" height="17" viewBox="0 0 15 17" fill="none" xmlns="http://www.w3.org/2000/svg">
<path d="M13.7526 13.264H1.24741C0.784259 13.264 0.378999 13.0429 0.147422 12.6561C-0.0841553 12.2692 -0.0262609 11.8271 0.205316 11.4402L0.842154 10.5007C1.88425 9.00847 2.4053 7.2952 2.4053 5.52667C2.4053 3.4818 3.79476 1.60273 5.82106 0.939533C6.16843 0.3316 6.80527 0 7.5 0C8.19473 0 8.83157 0.3316 9.17893 0.939533C11.2052 1.60273 12.5947 3.4818 12.5947 5.52667C12.5947 7.2952 13.1157 9.00847 14.1578 10.5007L14.7947 11.4402C15.0263 11.8271 15.0842 12.2692 14.8526 12.6561C14.6789 13.0429 14.2157 13.264 13.7526 13.264Z" fill="#A6A5A5"/>
<path d="M4.66324 14.3694C4.95271 15.6405 6.1106 16.5801 7.50006 16.5801C8.88952 16.5801 10.0474 15.6405 10.3369 14.3694H4.66324Z" fill="#A6A5A5"/>
</svg>
