<?xml version="1.0" encoding="utf-8"?>
<!-- Generator: Adobe Illustrator 24.3.0, SVG Export Plug-In . SVG Version: 6.00 Build 0)  -->
<svg version="1.1" id="Layer_1" xmlns="http://www.w3.org/2000/svg" xmlns:xlink="http://www.w3.org/1999/xlink" x="0px" y="0px"
	 viewBox="0 0 17 18" style="enable-background:new 0 0 17 18;" xml:space="preserve">
<style type="text/css">
	.st0{fill:#2F3F9F;}
	.st1{fill:#5A6DE0;}
</style>
<path class="st0" d="M14.3,1.2h-2.7V0.5c0-0.1-0.1-0.2-0.1-0.3C11.4,0.1,11.3,0,11.2,0H5.1C5,0,4.8,0,4.7,0.1
	C4.6,0.2,4.6,0.3,4.6,0.5v0.8H2.1c-0.5,0-1,0.2-1.3,0.5C0.4,2,0.2,2.5,0.2,2.9v13.4c0,0.4,0.2,0.9,0.5,1.2C1.1,17.8,1.6,18,2.1,18
	h12.3c0.5,0,1-0.2,1.3-0.5c0.4-0.3,0.5-0.7,0.5-1.2V2.9c0-0.4-0.2-0.9-0.5-1.2C15.3,1.4,14.8,1.2,14.3,1.2z M5.6,0.9h5v1.5h-5V0.9z
	 M12.4,15.3H3.8c-0.1,0-0.3,0-0.4-0.1c-0.1-0.1-0.1-0.2-0.1-0.3s0.1-0.2,0.1-0.3c0.1-0.1,0.2-0.1,0.4-0.1h8.5c0.1,0,0.3,0,0.4,0.1
	c0.1,0.1,0.1,0.2,0.1,0.3s-0.1,0.2-0.1,0.3C12.6,15.2,12.5,15.3,12.4,15.3z M12.4,12.2H3.8c-0.1,0-0.3,0-0.4-0.1
	c-0.1-0.1-0.1-0.2-0.1-0.3c0-0.1,0.1-0.2,0.1-0.3c0.1-0.1,0.2-0.1,0.4-0.1h8.5c0.1,0,0.3,0,0.4,0.1c0.1,0.1,0.1,0.2,0.1,0.3
	c0,0.1-0.1,0.2-0.1,0.3C12.6,12.2,12.5,12.2,12.4,12.2z M12.4,9.2H3.8c-0.1,0-0.3,0-0.4-0.1C3.4,9,3.3,8.9,3.3,8.7
	c0-0.1,0.1-0.2,0.1-0.3c0.1-0.1,0.2-0.1,0.4-0.1h8.5c0.1,0,0.3,0,0.4,0.1c0.1,0.1,0.1,0.2,0.1,0.3c0,0.1-0.1,0.2-0.1,0.3
	C12.6,9.2,12.5,9.2,12.4,9.2z M12.4,6.2H3.8c-0.1,0-0.3,0-0.4-0.1C3.4,6,3.3,5.8,3.3,5.7c0-0.1,0.1-0.2,0.1-0.3
	c0.1-0.1,0.2-0.1,0.4-0.1h8.5c0.1,0,0.3,0,0.4,0.1c0.1,0.1,0.1,0.2,0.1,0.3c0,0.1-0.1,0.2-0.1,0.3C12.6,6.1,12.5,6.2,12.4,6.2z"/>
<path class="st1" d="M15.5,21h-4.7c-0.1,0-0.3,0.1-0.3,0.1c-0.1,0.1-0.1,0.2-0.1,0.4v6c0,0.1,0.1,0.3,0.1,0.4
	c0.1,0.1,0.2,0.1,0.3,0.1h5.8c0.1,0,0.3-0.1,0.3-0.1c0.1-0.1,0.1-0.2,0.1-0.4v-4.9c0-0.4-0.2-0.9-0.5-1.2S15.9,21,15.5,21z"/>
<path class="st0" d="M9.4,21H4.7c-0.4,0-0.8,0.2-1.1,0.5c-0.3,0.3-0.5,0.7-0.5,1.2v4.9c0,0.1,0.1,0.3,0.1,0.4C3.3,28,3.4,28,3.6,28
	h5.8c0.1,0,0.3-0.1,0.3-0.1c0.1-0.1,0.1-0.2,0.1-0.4v-6c0-0.1-0.1-0.3-0.1-0.4S9.5,21,9.4,21z"/>
</svg>
